<svg width="30" height="30" viewBox="0 0 30 30" fill="none" xmlns="http://www.w3.org/2000/svg">
<path d="M15 22.5L16.3406 21.1941L11.1094 15.9375H22.5V14.0625L11.1094 14.0625L16.3406 8.83781L15 7.5L7.5 15L15 22.5Z" fill="#858588"/>
<path d="M15 1.87499C17.5959 1.87499 20.1335 2.64476 22.2919 4.08696C24.4502 5.52915 26.1325 7.57899 27.1259 9.97727C28.1193 12.3756 28.3792 15.0146 27.8728 17.5606C27.3664 20.1066 26.1163 22.4452 24.2808 24.2808C22.4452 26.1163 20.1066 27.3664 17.5606 27.8728C15.0146 28.3792 12.3756 28.1193 9.97727 27.1259C7.57899 26.1325 5.52915 24.4502 4.08696 22.2919C2.64476 20.1335 1.87499 17.5959 1.87499 15C1.87897 11.5202 3.26305 8.18416 5.7236 5.7236C8.18416 3.26305 11.5202 1.87897 15 1.87499ZM15 26.25C17.225 26.25 19.4001 25.5902 21.2502 24.354C23.1002 23.1179 24.5422 21.3609 25.3936 19.3052C26.2451 17.2495 26.4679 14.9875 26.0338 12.8052C25.5997 10.6229 24.5283 8.61839 22.9549 7.04504C21.3816 5.4717 19.377 4.40025 17.1948 3.96616C15.0125 3.53208 12.7505 3.75487 10.6948 4.60635C8.63914 5.45784 6.88213 6.89978 5.64596 8.74983C4.4098 10.5999 3.74999 12.775 3.74999 15C3.75347 17.9826 4.93985 20.8421 7.04888 22.9511C9.15791 25.0601 12.0174 26.2465 15 26.25Z" fill="#858588"/>
</svg>
