<svg width="40" height="40" viewBox="0 0 40 40" fill="none" xmlns="http://www.w3.org/2000/svg">
<path d="M17.5 29.5C17.1685 29.5 16.8505 29.6317 16.6161 29.8661C16.3817 30.1005 16.25 30.4185 16.25 30.75C16.25 31.0815 16.3817 31.3995 16.6161 31.6339C16.8505 31.8683 17.1685 32 17.5 32H22.5C22.8315 32 23.1495 31.8683 23.3839 31.6339C23.6183 31.3995 23.75 31.0815 23.75 30.75C23.75 30.4185 23.6183 30.1005 23.3839 29.8661C23.1495 29.6317 22.8315 29.5 22.5 29.5H17.5ZM14.375 2C13.2147 2 12.1019 2.46094 11.2814 3.28141C10.4609 4.10188 10 5.21468 10 6.375V32.625C10 35.04 11.96 37 14.375 37H25.625C26.7853 37 27.8981 36.5391 28.7186 35.7186C29.5391 34.8981 30 33.7853 30 32.625V6.375C30 5.21468 29.5391 4.10188 28.7186 3.28141C27.8981 2.46094 26.7853 2 25.625 2H14.375ZM12.5 6.375C12.5 5.87772 12.6975 5.40081 13.0492 5.04917C13.4008 4.69754 13.8777 4.5 14.375 4.5H25.625C26.1223 4.5 26.5992 4.69754 26.9508 5.04917C27.3025 5.40081 27.5 5.87772 27.5 6.375V32.625C27.5 33.1223 27.3025 33.5992 26.9508 33.9508C26.5992 34.3025 26.1223 34.5 25.625 34.5H14.375C13.8777 34.5 13.4008 34.3025 13.0492 33.9508C12.6975 33.5992 12.5 33.1223 12.5 32.625V6.375Z" fill="#229F90"/>
</svg>
