<svg width="32" height="30" viewBox="0 0 32 30" fill="none" xmlns="http://www.w3.org/2000/svg">
<rect x="0.659628" y="0.659628" width="30.3429" height="28.6807" rx="3.34037" fill="white" fill-opacity="0.3"/>
<rect x="0.659628" y="0.659628" width="30.3429" height="28.6807" rx="3.34037" stroke="white" stroke-width="1.31926"/>
<path fill-rule="evenodd" clip-rule="evenodd" d="M5.66336 5.66312C5.91076 5.41579 6.24626 5.27686 6.59607 5.27686C6.94589 5.27686 7.28139 5.41579 7.52879 5.66312L24.3203 22.4533C24.5606 22.7021 24.6936 23.0354 24.6906 23.3813C24.6876 23.7272 24.5488 24.0581 24.3042 24.3027C24.0596 24.5473 23.7287 24.686 23.3828 24.689C23.0369 24.692 22.7037 24.559 22.4549 24.3187L5.66336 7.52855C5.41604 7.28115 5.2771 6.94565 5.2771 6.59583C5.2771 6.24601 5.41604 5.91051 5.66336 5.66312Z" fill="white"/>
<path fill-rule="evenodd" clip-rule="evenodd" d="M24.6791 5.66312C24.9264 5.91051 25.0653 6.24601 25.0653 6.59583C25.0653 6.94565 24.9264 7.28115 24.6791 7.52855L7.88757 24.32C7.76587 24.4461 7.6203 24.5466 7.45934 24.6157C7.29839 24.6848 7.12528 24.7212 6.95011 24.7228C6.77494 24.7243 6.60122 24.6909 6.43908 24.6246C6.27695 24.5582 6.12966 24.4603 6.00579 24.3364C5.88192 24.2125 5.78396 24.0652 5.71763 23.9031C5.65129 23.741 5.61791 23.5673 5.61943 23.3921C5.62096 23.2169 5.65735 23.0438 5.72649 22.8828C5.79563 22.7219 5.89614 22.5763 6.02214 22.4546L22.8136 5.66312C23.061 5.41579 23.3965 5.27686 23.7464 5.27686C24.0962 5.27686 24.4317 5.41579 24.6791 5.66312Z" fill="white"/>
</svg>
