<svg width="28" height="27" viewBox="0 0 28 27" fill="none" xmlns="http://www.w3.org/2000/svg">
<path d="M2 1C2 0.734784 2.10536 0.48043 2.29289 0.292893C2.48043 0.105357 2.73478 0 3 0H25C25.2652 0 25.5196 0.105357 25.7071 0.292893C25.8946 0.48043 26 0.734784 26 1C26 1.26522 25.8946 1.51957 25.7071 1.70711C25.5196 1.89464 25.2652 2 25 2H22C22 2.556 21.596 3 21.09 3H20.5V6.09C21.35 6.32 21.98 7.11 21.98 8.03C21.98 8.726 21.62 9.342 21.077 9.7L21.997 11H26.486C26.6202 10.9989 26.7495 11.0508 26.8457 11.1444C26.9419 11.238 26.9974 11.3658 27 11.5C27 11.566 26.9869 11.6313 26.9616 11.6923C26.9362 11.7532 26.899 11.8085 26.8521 11.855C26.8053 11.9015 26.7497 11.9382 26.6886 11.9631C26.6274 11.988 26.562 12.0005 26.496 12H26V15H26.486C26.6202 14.9989 26.7495 15.0508 26.8457 15.1444C26.9419 15.238 26.9974 15.3658 27 15.5C26.9974 15.6342 26.9419 15.762 26.8457 15.8556C26.7495 15.9492 26.6202 16.0011 26.486 16H25.468C25.4822 16.0915 25.4702 16.1851 25.4334 16.2701C25.3966 16.355 25.3365 16.4278 25.26 16.48C25.17 16.54 25.07 16.57 24.97 16.57C24.81 16.57 24.66 16.5 24.56 16.36L24.305 16H15.655L15.4 16.36C15.3 16.5 15.15 16.57 14.99 16.57C14.89 16.57 14.79 16.54 14.7 16.48C14.6235 16.4278 14.5634 16.355 14.5266 16.2701C14.4898 16.1851 14.4778 16.0915 14.492 16H13.514C13.3798 16.0011 13.2505 15.9492 13.1543 15.8556C13.0581 15.762 13.0026 15.6342 13 15.5C13 15.226 13.232 15 13.514 15H14V12H13.514C13.3798 12.0011 13.2505 11.9492 13.1543 11.8556C13.0581 11.762 13.0026 11.6342 13 11.5C13 11.226 13.232 11 13.514 11H17.964L18.884 9.7C18.6067 9.51835 18.379 9.27064 18.2212 8.97913C18.0634 8.68763 17.9805 8.36147 17.98 8.03C17.98 7.75 18.21 7.53 18.48 7.53C18.76 7.53 18.98 7.75 18.98 8.03C18.98 8.39 19.173 8.708 19.461 8.884L19.546 8.764C19.568 8.72743 19.5945 8.69383 19.625 8.664C19.6716 8.6173 19.7269 8.58027 19.7878 8.55504C19.8487 8.52981 19.9141 8.51688 19.98 8.517C20.11 8.516 20.24 8.567 20.335 8.664C20.3658 8.69377 20.3927 8.72738 20.415 8.764L20.499 8.884C20.787 8.708 20.98 8.39 20.98 8.03C20.98 7.48 20.55 7.04 20 7.03C19.83 7.03 19.67 6.94 19.58 6.8C19.5209 6.72246 19.4893 6.62748 19.49 6.53C19.49 6.49 19.49 6.46 19.5 6.42V3H18.91C18.404 3 18 2.556 18 2H12V23H12.75C13.44 23 14 23.56 14 24.25V25H26.01C27.11 25 28 25.895 28 27H0C0 25.895 0.89 25 1.99 25H3V24.25C3 23.56 3.56 23 4.25 23H5V2H3C2.73478 2 2.48043 1.89464 2.29289 1.70711C2.10536 1.51957 2 1.26522 2 1ZM6 4V6.191L10.382 4H6ZM6.618 23H11V20.809L6.618 23ZM10.382 20H6V22.191L10.382 20ZM6.618 7H11V4.809L6.618 7ZM10.382 8H6V10.191L10.382 8ZM6.618 11H11V8.809L6.618 11ZM10.382 12H6V14.191L10.382 12ZM6.618 15H11V12.809L6.618 15ZM10.382 16H6V18.191L10.382 16ZM6.618 19H11V16.809L6.618 19ZM19.882 10.028L19.194 11H20.766L20.078 10.028C20.0127 10.0312 19.9473 10.0312 19.882 10.028ZM17.256 12H15V15H15.132L17.256 12ZM16.363 15H23.597L21.474 12H18.486L16.363 15ZM22.705 12L24.828 15H25V12H22.705Z" fill="#229F90"/>
</svg>
