<svg width="31" height="26" viewBox="0 0 31 26" fill="none" xmlns="http://www.w3.org/2000/svg">
<path d="M0.874547 24.0777V22.8192C0.874547 22.1672 1.04855 21.5847 1.39655 21.0717C1.74455 20.5587 2.23555 20.1432 2.86955 19.8252C4.08655 19.2142 5.43755 18.7217 6.92255 18.3477C8.40755 17.9747 9.89155 17.7882 11.3745 17.7882C12.8575 17.7882 14.341 17.9747 15.825 18.3477C17.309 18.7207 18.66 19.2132 19.878 19.8252C20.512 20.1422 21.003 20.5572 21.351 21.0702C21.7 21.5842 21.8745 22.1672 21.8745 22.8192V24.0777C21.8745 24.4257 21.7595 24.7142 21.5295 24.9432C21.2995 25.1732 21.0105 25.2882 20.6625 25.2882H2.08505C1.73705 25.2882 1.44805 25.1732 1.21805 24.9432C0.988047 24.7132 0.873047 24.4247 0.873047 24.0777M2.37305 23.7882H20.373V22.8192C20.373 22.4092 20.2565 22.0727 20.0235 21.8097C19.7905 21.5467 19.5035 21.3237 19.1625 21.1407C18.2235 20.6527 17.048 20.2222 15.636 19.8492C14.223 19.4752 12.8025 19.2882 11.3745 19.2882C9.94455 19.2882 8.52355 19.4752 7.11155 19.8492C5.69955 20.2222 4.52405 20.6527 3.58505 21.1407C3.24505 21.3237 2.95805 21.5467 2.72405 21.8097C2.49005 22.0737 2.37305 22.4102 2.37305 22.8192V23.7882ZM11.373 14.4432C10.089 14.4432 9.01805 14.0142 8.16005 13.1562C7.30205 12.2982 6.87355 11.1692 6.87455 9.76922H6.55655C6.38955 9.76922 6.25155 9.71522 6.14255 9.60722C6.03355 9.49722 5.97905 9.35922 5.97905 9.19322C5.97905 9.02722 6.03355 8.88922 6.14255 8.77922C6.25155 8.66922 6.38955 8.61472 6.55655 8.61572H6.87455C6.91255 7.85572 7.07205 7.16572 7.35305 6.54572C7.63305 5.92372 8.08855 5.33122 8.71955 4.76822V6.19322C8.71955 6.36022 8.77405 6.49822 8.88305 6.60722C8.99205 6.71522 9.13005 6.76922 9.29705 6.76922C9.46405 6.76922 9.60205 6.71522 9.71105 6.60722C9.82005 6.49922 9.87455 6.36122 9.87455 6.19322V4.22522C10.0795 4.15022 10.312 4.08422 10.572 4.02722C10.832 3.97122 11.0995 3.94322 11.3745 3.94322C11.6495 3.94322 11.9165 3.97122 12.1755 4.02722C12.4345 4.08322 12.6675 4.14922 12.8745 4.22522V6.19322C12.8745 6.36022 12.9285 6.49822 13.0365 6.60722C13.1455 6.71522 13.2835 6.76922 13.4505 6.76922C13.6175 6.76922 13.7555 6.71522 13.8645 6.60722C13.9735 6.49922 14.028 6.36122 14.028 6.19322V4.76822C14.678 5.33122 15.138 5.92322 15.408 6.54422C15.68 7.16522 15.835 7.85572 15.873 8.61572H16.191C16.358 8.61572 16.496 8.67022 16.605 8.77922C16.713 8.88722 16.767 9.02522 16.767 9.19322C16.767 9.36122 16.713 9.49922 16.605 9.60722C16.497 9.71522 16.359 9.76922 16.191 9.76922H15.873C15.873 11.1692 15.4445 12.2982 14.5875 13.1562C13.7295 14.0142 12.658 14.4432 11.373 14.4432ZM11.373 12.9432C12.237 12.9432 12.953 12.6587 13.521 12.0897C14.089 11.5217 14.373 10.8057 14.373 9.94172H8.37305C8.37305 10.8057 8.65755 11.5217 9.22655 12.0897C9.79555 12.6577 10.511 12.9422 11.373 12.9432ZM22.626 16.7562L22.5721 16.2012C22.383 16.1512 22.186 16.0712 21.981 15.9612C21.776 15.8512 21.6015 15.7237 21.4575 15.5787L20.922 15.8157C20.785 15.8657 20.655 15.8707 20.532 15.8307C20.407 15.7907 20.304 15.7022 20.223 15.5652L20.16 15.4452C20.08 15.3152 20.0535 15.1822 20.0805 15.0462C20.1085 14.9092 20.185 14.7977 20.31 14.7117L20.772 14.3742C20.733 14.2602 20.7135 14.1562 20.7135 14.0622V13.4532C20.7135 13.3682 20.733 13.2597 20.772 13.1277L20.31 12.7902C20.185 12.7032 20.1085 12.5917 20.0805 12.4557C20.0525 12.3187 20.079 12.1847 20.16 12.0537L20.223 11.9367C20.304 11.7997 20.4065 11.7112 20.5306 11.6712C20.6545 11.6302 20.7845 11.6347 20.9205 11.6847L21.459 11.9217C21.597 11.7827 21.7695 11.6567 21.9765 11.5437C22.1845 11.4307 22.383 11.3492 22.5721 11.2992L22.626 10.7442C22.657 10.6082 22.7255 10.4882 22.8316 10.3842C22.9375 10.2822 23.0585 10.2312 23.1945 10.2312H23.3221C23.458 10.2312 23.579 10.2827 23.685 10.3857C23.791 10.4887 23.8591 10.6087 23.889 10.7457L23.9445 11.2992C24.1335 11.3492 24.3315 11.4307 24.5385 11.5437C24.7455 11.6567 24.9191 11.7827 25.059 11.9217L25.5945 11.6847C25.7315 11.6347 25.8616 11.6297 25.9846 11.6697C26.1096 11.7097 26.2125 11.7987 26.2935 11.9367L26.3565 12.0537C26.4365 12.1847 26.463 12.3187 26.436 12.4557C26.408 12.5917 26.3315 12.7032 26.2065 12.7902L25.7446 13.1277C25.7836 13.2597 25.803 13.3682 25.803 13.4532V14.0622C25.803 14.1562 25.7836 14.2602 25.7446 14.3742L26.2065 14.7117C26.3315 14.7977 26.408 14.9092 26.436 15.0462C26.464 15.1822 26.4375 15.3157 26.3565 15.4467L26.2935 15.5652C26.2125 15.7012 26.1101 15.7897 25.986 15.8307C25.862 15.8717 25.732 15.8667 25.596 15.8157L25.059 15.5787C24.914 15.7237 24.739 15.8512 24.534 15.9612C24.33 16.0712 24.1335 16.1512 23.9445 16.2012L23.8905 16.7562C23.8595 16.8932 23.791 17.0132 23.685 17.1162C23.579 17.2192 23.458 17.2702 23.3221 17.2692H23.1945C23.0585 17.2692 22.9375 17.2177 22.8316 17.1147C22.7255 17.0127 22.657 16.8942 22.626 16.7562ZM23.2591 15.1047C23.636 15.1047 23.956 14.9737 24.219 14.7117C24.482 14.4477 24.6136 14.1272 24.6136 13.7502C24.6136 13.3732 24.482 13.0532 24.219 12.7902C23.956 12.5272 23.636 12.3952 23.2591 12.3942C22.882 12.3932 22.5615 12.5252 22.2975 12.7902C22.0345 13.0532 21.903 13.3732 21.903 13.7502C21.903 14.1272 22.0345 14.4472 22.2975 14.7102C22.5605 14.9732 22.8805 15.1052 23.2575 15.1062M26.241 8.56922L26.178 7.96322C25.895 7.90822 25.5976 7.79522 25.2856 7.62422C24.9726 7.45422 24.722 7.24622 24.534 7.00022L23.919 7.26272C23.771 7.31872 23.6276 7.32222 23.4886 7.27322C23.3496 7.22422 23.237 7.12872 23.151 6.98672L23.0716 6.84122C22.9846 6.69922 22.9545 6.55272 22.9815 6.40172C23.0105 6.25072 23.0961 6.12622 23.2381 6.02822L23.76 5.63822C23.71 5.49422 23.675 5.34622 23.6551 5.19422C23.6371 5.04222 23.628 4.89422 23.628 4.75022C23.628 4.60622 23.6375 4.45822 23.6565 4.30622C23.6755 4.15422 23.71 4.00622 23.76 3.86222L23.2381 3.47222C23.0961 3.37422 23.011 3.24972 22.983 3.09872C22.955 2.94772 22.984 2.80122 23.07 2.65922L23.151 2.51522C23.238 2.37222 23.3505 2.27622 23.4886 2.22722C23.6265 2.17822 23.77 2.18172 23.919 2.23772L24.534 2.50022C24.722 2.25422 24.972 2.04622 25.284 1.87622C25.597 1.70622 25.895 1.59322 26.178 1.53722L26.241 0.931223C26.271 0.777223 26.3465 0.644723 26.4675 0.533723C26.5875 0.421723 26.7246 0.365723 26.8786 0.365723H27.0225C27.1765 0.365723 27.3136 0.421723 27.4335 0.533723C27.5536 0.644723 27.6291 0.777223 27.6601 0.931223L27.7246 1.53722C28.0065 1.59322 28.304 1.70622 28.617 1.87622C28.929 2.04622 29.179 2.25422 29.367 2.50022L29.982 2.23772C30.13 2.18172 30.2736 2.17822 30.4125 2.22722C30.5515 2.27622 30.664 2.37222 30.75 2.51522L30.831 2.65922C30.917 2.80122 30.946 2.94772 30.918 3.09872C30.89 3.24972 30.805 3.37422 30.663 3.47222L30.1411 3.86222C30.1911 4.00622 30.226 4.15422 30.246 4.30622C30.2651 4.45822 30.2746 4.60622 30.2746 4.75022C30.2746 4.89422 30.2646 5.04222 30.2446 5.19422C30.2246 5.34622 30.1901 5.49422 30.1411 5.63822L30.663 6.02822C30.805 6.12622 30.89 6.25072 30.918 6.40172C30.946 6.55272 30.917 6.69922 30.831 6.84122L30.75 6.98522C30.663 7.12822 30.5506 7.22422 30.4125 7.27322C30.2745 7.32222 30.131 7.31872 29.982 7.26272L29.367 7.00022C29.179 7.24622 28.929 7.45422 28.617 7.62422C28.304 7.79422 28.0061 7.90722 27.7231 7.96322L27.6601 8.56922C27.6301 8.72322 27.5546 8.85622 27.4335 8.96822C27.3136 9.07922 27.1765 9.13472 27.0225 9.13472H26.8786C26.7246 9.13472 26.5875 9.07922 26.4675 8.96822C26.3475 8.85622 26.272 8.72322 26.241 8.56922ZM26.9505 6.79922C27.5335 6.79922 28.0206 6.60322 28.4116 6.21122C28.8036 5.82022 28.9995 5.33322 28.9995 4.75022C28.9995 4.16722 28.8036 3.68022 28.4116 3.28922C28.0196 2.89822 27.5325 2.70272 26.9505 2.70272C26.3685 2.70272 25.8815 2.89822 25.4895 3.28922C25.0975 3.68022 24.9021 4.16722 24.903 4.75022C24.904 5.33322 25.0995 5.82022 25.4895 6.21122C25.8805 6.60322 26.3675 6.79922 26.9505 6.79922Z" fill="#229F90"/>
</svg>
