<svg width="10" height="18" viewBox="0 0 10 18" fill="none" xmlns="http://www.w3.org/2000/svg">
<path d="M3.00171 16.5217V10.46H0.681706C0.561253 10.46 0.445734 10.4122 0.360562 10.327C0.275389 10.2418 0.227539 10.1263 0.227539 10.0059V7.60837C0.227539 7.48792 0.275389 7.3724 0.360562 7.28723C0.445734 7.20206 0.561253 7.15421 0.681706 7.15421H2.99254V4.83337C2.93726 4.283 3.00315 3.7272 3.18558 3.205C3.36801 2.68281 3.66256 2.20689 4.04853 1.81067C4.43451 1.41445 4.90255 1.10754 5.41978 0.911495C5.93702 0.715451 6.49091 0.635027 7.04254 0.675873H8.97587C9.09747 0.675634 9.21429 0.723207 9.30112 0.808328C9.38796 0.893449 9.43785 1.00929 9.44004 1.13087V3.16087C9.43742 3.28224 9.38737 3.39775 9.3006 3.48264C9.21384 3.56754 9.09726 3.61507 8.97587 3.61504H7.76754C6.46254 3.61504 6.21171 4.23337 6.21171 5.14254V7.15337H9.31421C9.37869 7.15124 9.44286 7.16317 9.50226 7.18835C9.56166 7.21353 9.61486 7.25135 9.65817 7.29917C9.70147 7.34699 9.73384 7.40368 9.75301 7.46528C9.77219 7.52688 9.77771 7.59192 9.76921 7.65587L9.48837 10.0625C9.47431 10.1728 9.42032 10.274 9.33662 10.3471C9.25292 10.4202 9.14533 10.4601 9.03421 10.4592H6.23087V16.5209C6.23245 16.628 6.2125 16.7343 6.17222 16.8335C6.13193 16.9328 6.07213 17.0229 5.99635 17.0986C5.92058 17.1743 5.83038 17.234 5.73109 17.2742C5.63181 17.3144 5.52547 17.3342 5.41837 17.3325H3.80421C3.69795 17.3329 3.59269 17.3121 3.49457 17.2713C3.39645 17.2305 3.30744 17.1706 3.23273 17.095C3.15803 17.0194 3.09912 16.9298 3.05945 16.8312C3.01979 16.7326 3.00016 16.628 3.00171 16.5217Z" fill="white"/>
</svg>
