<svg width="18" height="18" viewBox="0 0 18 18" fill="none" xmlns="http://www.w3.org/2000/svg">
<path d="M9 5.25C8.25832 5.25 7.5333 5.46993 6.91661 5.88199C6.29993 6.29404 5.81928 6.87971 5.53545 7.56494C5.25162 8.25016 5.17736 9.00416 5.32206 9.73159C5.46675 10.459 5.8239 11.1272 6.34835 11.6517C6.8728 12.1761 7.54098 12.5333 8.26841 12.6779C8.99584 12.8226 9.74984 12.7484 10.4351 12.4645C11.1203 12.1807 11.706 11.7001 12.118 11.0834C12.5301 10.4667 12.75 9.74168 12.75 9C12.749 8.00576 12.3535 7.05253 11.6505 6.34949C10.9475 5.64645 9.99424 5.25103 9 5.25ZM9 11.5C8.50555 11.5 8.0222 11.3534 7.61107 11.0787C7.19995 10.804 6.87952 10.4135 6.6903 9.95671C6.50108 9.49989 6.45157 8.99723 6.54804 8.51227C6.6445 8.02732 6.8826 7.58186 7.23223 7.23223C7.58186 6.8826 8.02732 6.6445 8.51227 6.54804C8.99723 6.45157 9.49989 6.50108 9.95671 6.6903C10.4135 6.87952 10.804 7.19995 11.0787 7.61107C11.3534 8.0222 11.5 8.50555 11.5 9C11.5 9.66304 11.2366 10.2989 10.7678 10.7678C10.2989 11.2366 9.66304 11.5 9 11.5ZM12.75 0.875H5.25C4.09006 0.876241 2.97798 1.33758 2.15778 2.15778C1.33758 2.97798 0.876241 4.09006 0.875 5.25V12.75C0.876241 13.9099 1.33758 15.022 2.15778 15.8422C2.97798 16.6624 4.09006 17.1238 5.25 17.125H12.75C13.9099 17.1238 15.022 16.6624 15.8422 15.8422C16.6624 15.022 17.1238 13.9099 17.125 12.75V5.25C17.1238 4.09006 16.6624 2.97798 15.8422 2.15778C15.022 1.33758 13.9099 0.876241 12.75 0.875ZM15.875 12.75C15.875 13.5788 15.5458 14.3737 14.9597 14.9597C14.3737 15.5458 13.5788 15.875 12.75 15.875H5.25C4.4212 15.875 3.62634 15.5458 3.04029 14.9597C2.45424 14.3737 2.125 13.5788 2.125 12.75V5.25C2.125 4.4212 2.45424 3.62634 3.04029 3.04029C3.62634 2.45424 4.4212 2.125 5.25 2.125H12.75C13.5788 2.125 14.3737 2.45424 14.9597 3.04029C15.5458 3.62634 15.875 4.4212 15.875 5.25V12.75ZM14 4.9375C14 5.12292 13.945 5.30418 13.842 5.45835C13.739 5.61252 13.5926 5.73268 13.4213 5.80364C13.25 5.87459 13.0615 5.89316 12.8796 5.85699C12.6977 5.82081 12.5307 5.73152 12.3996 5.60041C12.2685 5.4693 12.1792 5.30225 12.143 5.1204C12.1068 4.93854 12.1254 4.75004 12.1964 4.57873C12.2673 4.40743 12.3875 4.26101 12.5417 4.158C12.6958 4.05498 12.8771 4 13.0625 4C13.3111 4 13.5496 4.09877 13.7254 4.27459C13.9012 4.4504 14 4.68886 14 4.9375Z" fill="white"/>
</svg>
