<svg width="34" height="34" viewBox="0 0 34 34" fill="none" xmlns="http://www.w3.org/2000/svg">
<path d="M17 25.5L18.5194 24.0199L12.5906 18.0625H25.5V15.9375L12.5906 15.9375L18.5194 10.0162L17 8.5L8.5 17L17 25.5Z" fill="#229F90"/>
<path d="M17 2.12499C19.942 2.12499 22.8179 2.9974 25.2641 4.63188C27.7103 6.26637 29.6168 8.58953 30.7427 11.3076C31.8686 14.0256 32.1631 17.0165 31.5892 19.902C31.0152 22.7874 29.5985 25.4379 27.5182 27.5182C25.4379 29.5985 22.7874 31.0152 19.902 31.5892C17.0165 32.1631 14.0256 31.8686 11.3076 30.7427C8.58953 29.6168 6.26637 27.7103 4.63188 25.2641C2.9974 22.8179 2.12499 19.942 2.12499 17C2.12949 13.0563 3.69812 9.27538 6.48675 6.48675C9.27538 3.69812 13.0563 2.12949 17 2.12499ZM17 29.75C19.5217 29.75 21.9868 29.0022 24.0835 27.6012C26.1802 26.2002 27.8144 24.209 28.7795 21.8792C29.7445 19.5494 29.997 16.9859 29.505 14.5126C29.013 12.0393 27.7987 9.7675 26.0156 7.98438C24.2325 6.20126 21.9607 4.98694 19.4874 4.49498C17.0141 4.00302 14.4505 4.25551 12.1208 5.22053C9.79102 6.18555 7.79975 7.81975 6.39876 9.91647C4.99777 12.0132 4.24999 14.4783 4.24999 17C4.25393 20.3803 5.59849 23.621 7.98873 26.0113C10.379 28.4015 13.6197 29.7461 17 29.75Z" fill="#229F90"/>
</svg>
