<svg width="40" height="40" viewBox="0 0 40 40" fill="none" xmlns="http://www.w3.org/2000/svg">
<path fill-rule="evenodd" clip-rule="evenodd" d="M20.4117 34.949C22.3286 33.2096 24.1026 31.3191 25.7167 29.2957C29.1167 25.024 31.1851 20.8123 31.3251 17.0673C31.3805 15.5453 31.1285 14.0277 30.5843 12.6053C30.0401 11.1828 29.2147 9.88465 28.1576 8.7883C27.1004 7.69195 25.8331 6.81993 24.4314 6.22432C23.0297 5.62871 21.5223 5.32174 19.9992 5.32174C18.4762 5.32174 16.9688 5.62871 15.5671 6.22432C14.1654 6.81993 12.8981 7.69195 11.8409 8.7883C10.7838 9.88465 9.95841 11.1828 9.41418 12.6053C8.86995 14.0277 8.61802 15.5453 8.67341 17.0673C8.81508 20.8123 10.8851 25.024 14.2834 29.2957C15.8975 31.3191 17.6716 33.2096 19.5884 34.949C19.7729 35.1157 19.9101 35.2368 20.0001 35.3123L20.4117 34.949ZM18.7701 36.8907C18.7701 36.8907 6.66675 26.6973 6.66675 16.6673C6.66675 13.1311 8.07151 9.73971 10.572 7.23923C13.0725 4.73874 16.4639 3.33398 20.0001 3.33398C23.5363 3.33398 26.9277 4.73874 29.4282 7.23923C31.9287 9.73971 33.3334 13.1311 33.3334 16.6673C33.3334 26.6973 21.2301 36.8907 21.2301 36.8907C20.5567 37.5107 19.4484 37.504 18.7701 36.8907ZM20.0001 21.334C21.2378 21.334 22.4247 20.8423 23.2999 19.9672C24.1751 19.092 24.6667 17.905 24.6667 16.6673C24.6667 15.4296 24.1751 14.2427 23.2999 13.3675C22.4247 12.4923 21.2378 12.0007 20.0001 12.0007C18.7624 12.0007 17.5754 12.4923 16.7002 13.3675C15.8251 14.2427 15.3334 15.4296 15.3334 16.6673C15.3334 17.905 15.8251 19.092 16.7002 19.9672C17.5754 20.8423 18.7624 21.334 20.0001 21.334ZM20.0001 23.334C18.232 23.334 16.5363 22.6316 15.286 21.3814C14.0358 20.1311 13.3334 18.4354 13.3334 16.6673C13.3334 14.8992 14.0358 13.2035 15.286 11.9533C16.5363 10.703 18.232 10.0007 20.0001 10.0007C21.7682 10.0007 23.4639 10.703 24.7141 11.9533C25.9644 13.2035 26.6667 14.8992 26.6667 16.6673C26.6667 18.4354 25.9644 20.1311 24.7141 21.3814C23.4639 22.6316 21.7682 23.334 20.0001 23.334Z" fill="#229F90"/>
</svg>
