<svg width="32" height="32" viewBox="0 0 32 32" fill="none" xmlns="http://www.w3.org/2000/svg">
<path d="M8 14H14V16H8V14ZM8 6H20V8H8V6ZM8 10H20V12H8V10ZM8 24H14V26H8V24ZM30 24V22H27.899C27.7693 21.3743 27.5208 20.7792 27.167 20.247L28.657 18.757L27.243 17.343L25.753 18.833C25.2208 18.4792 24.6257 18.2307 24 18.101V16H22V18.101C21.3743 18.2307 20.7792 18.4792 20.247 18.833L18.757 17.343L17.343 18.757L18.833 20.247C18.4792 20.7792 18.2307 21.3743 18.101 22H16V24H18.101C18.2307 24.6257 18.4792 25.2208 18.833 25.753L17.343 27.243L18.757 28.657L20.247 27.167C20.7792 27.5208 21.3743 27.7693 22 27.899V30H24V27.899C24.6257 27.7693 25.2208 27.5208 25.753 27.167L27.243 28.657L28.657 27.243L27.167 25.753C27.5208 25.2208 27.7693 24.6257 27.899 24H30ZM23 26C22.4067 26 21.8266 25.8241 21.3333 25.4944C20.8399 25.1648 20.4554 24.6962 20.2284 24.1481C20.0013 23.5999 19.9419 22.9967 20.0576 22.4147C20.1734 21.8328 20.4591 21.2982 20.8787 20.8787C21.2982 20.4591 21.8328 20.1734 22.4147 20.0576C22.9967 19.9419 23.5999 20.0013 24.1481 20.2284C24.6962 20.4554 25.1648 20.8399 25.4944 21.3333C25.8241 21.8266 26 22.4067 26 23C25.9992 23.7954 25.6829 24.558 25.1204 25.1204C24.558 25.6829 23.7954 25.9992 23 26Z" fill="#229F90"/>
<path d="M14 30H6C5.46957 30 4.96086 29.7893 4.58579 29.4142C4.21071 29.0391 4 28.5304 4 28V4C4 3.46957 4.21071 2.96086 4.58579 2.58579C4.96086 2.21071 5.46957 2 6 2H22C22.5304 2 23.0391 2.21071 23.4142 2.58579C23.7893 2.96086 24 3.46957 24 4V14H22V4H6V28H14V30Z" fill="#229F90"/>
</svg>
