<svg width="25" height="25" viewBox="0 0 25 25" fill="none" xmlns="http://www.w3.org/2000/svg">
<path d="M25 15.6249V24.9999H12.5V15.6249H15.625V12.4999H21.875V15.6249H25ZM17.1875 15.6249H20.3125V14.0624H17.1875V15.6249ZM23.4375 20.3124H21.875V21.8749H20.3125V20.3124H17.1875V21.8749H15.625V20.3124H14.0625V23.4374H23.4375V20.3124ZM23.4375 17.1874H14.0625V18.7499H23.4375V17.1874ZM19.104 10.9374C18.6646 10.441 18.1437 10.0585 17.5415 9.78993C16.9393 9.52138 16.3005 9.38303 15.625 9.37489C14.974 9.37489 14.3677 9.49696 13.8062 9.7411C13.2446 9.98524 12.7482 10.3189 12.3169 10.7421C11.8856 11.1653 11.5479 11.6657 11.3037 12.2435C11.0596 12.8213 10.9375 13.4276 10.9375 14.0624C10.9375 14.8111 10.7707 15.515 10.437 16.1742C10.1034 16.8334 9.63135 17.3868 9.021 17.8344C9.38721 18.0215 9.729 18.2372 10.0464 18.4813C10.3638 18.7255 10.6608 19.0022 10.9375 19.3114V23.4374C10.9375 22.7945 10.8154 22.1882 10.5713 21.6185C10.3271 21.0489 9.99349 20.5525 9.57031 20.1293C9.14714 19.7061 8.64665 19.3684 8.06885 19.1161C7.49105 18.8638 6.88477 18.7418 6.25 18.7499C5.59896 18.7499 4.99268 18.872 4.43115 19.1161C3.86963 19.3602 3.37321 19.6939 2.94189 20.1171C2.51058 20.5403 2.17285 21.0407 1.92871 21.6185C1.68457 22.1963 1.5625 22.8026 1.5625 23.4374H0C0 22.8433 0.0813802 22.2696 0.244141 21.7162C0.406901 21.1628 0.638835 20.6379 0.939941 20.1415C1.24105 19.6451 1.60726 19.2056 2.03857 18.8231C2.46989 18.4406 2.95003 18.1111 3.479 17.8344C2.87679 17.3949 2.40885 16.8456 2.0752 16.1864C1.74154 15.5272 1.57064 14.8192 1.5625 14.0624C1.5625 13.4195 1.68457 12.8132 1.92871 12.2435C2.17285 11.6739 2.50651 11.1775 2.92969 10.7543C3.35286 10.3311 3.84928 9.99338 4.41895 9.7411C4.98861 9.48883 5.59896 9.36676 6.25 9.37489C6.9987 9.37489 7.70264 9.54172 8.36182 9.87538C9.021 10.209 9.57438 10.681 10.022 11.2914C10.3312 10.681 10.7259 10.1358 11.2061 9.65565C11.6862 9.17551 12.2355 8.77675 12.854 8.45937C12.2518 8.01991 11.7839 7.4706 11.4502 6.81142C11.1165 6.15224 10.9456 5.44423 10.9375 4.68739C10.9375 4.04449 11.0596 3.43821 11.3037 2.86855C11.5479 2.29888 11.8815 1.80246 12.3047 1.37929C12.7279 0.956111 13.2243 0.618383 13.7939 0.366104C14.3636 0.113825 14.974 -0.00824483 15.625 -0.000106812C16.2679 -0.000106812 16.8742 0.121964 17.4438 0.366104C18.0135 0.610245 18.5099 0.943904 18.9331 1.36708C19.3563 1.79026 19.694 2.29075 19.9463 2.86855C20.1986 3.44635 20.3206 4.05263 20.3125 4.68739C20.3125 5.43609 20.1457 6.14003 19.812 6.79921C19.4784 7.45839 19.0063 8.01178 18.396 8.45937C18.9494 8.73606 19.4499 9.08192 19.8975 9.49696C20.3451 9.912 20.7235 10.3921 21.0327 10.9374H19.104ZM6.25 17.1874C6.68131 17.1874 7.08415 17.106 7.4585 16.9433C7.83285 16.7805 8.1665 16.5567 8.45947 16.2719C8.75244 15.987 8.97624 15.6574 9.13086 15.2831C9.28548 14.9087 9.36686 14.5018 9.375 14.0624C9.375 13.6311 9.29362 13.2282 9.13086 12.8539C8.9681 12.4795 8.7443 12.1459 8.45947 11.8529C8.17464 11.56 7.84505 11.3362 7.4707 11.1815C7.09635 11.0269 6.68945 10.9455 6.25 10.9374C5.81869 10.9374 5.41585 11.0188 5.0415 11.1815C4.66715 11.3443 4.3335 11.5681 4.04053 11.8529C3.74756 12.1378 3.52376 12.4673 3.36914 12.8417C3.21452 13.216 3.13314 13.6229 3.125 14.0624C3.125 14.4937 3.20638 14.8965 3.36914 15.2709C3.5319 15.6452 3.7557 15.9789 4.04053 16.2719C4.32536 16.5648 4.65495 16.7886 5.0293 16.9433C5.40365 17.0979 5.81055 17.1793 6.25 17.1874ZM12.5 4.68739C12.5 5.11871 12.5814 5.52154 12.7441 5.89589C12.9069 6.27024 13.1307 6.6039 13.4155 6.89687C13.7004 7.18983 14.0299 7.41363 14.4043 7.56825C14.7786 7.72288 15.1855 7.80426 15.625 7.81239C16.0563 7.81239 16.4591 7.73101 16.8335 7.56825C17.2078 7.40549 17.5415 7.1817 17.8345 6.89687C18.1274 6.61204 18.3512 6.28245 18.5059 5.9081C18.6605 5.53375 18.7419 5.12685 18.75 4.68739C18.75 4.25608 18.6686 3.85325 18.5059 3.4789C18.3431 3.10455 18.1193 2.77089 17.8345 2.47792C17.5496 2.18495 17.2201 1.96116 16.8457 1.80653C16.4714 1.65191 16.0645 1.57053 15.625 1.56239C15.1937 1.56239 14.7909 1.64377 14.4165 1.80653C14.0422 1.96929 13.7085 2.19309 13.4155 2.47792C13.1226 2.76275 12.8988 3.09234 12.7441 3.46669C12.5895 3.84104 12.5081 4.24794 12.5 4.68739Z" fill="#229F90"/>
</svg>
