<svg width="18" height="17" viewBox="0 0 18 17" fill="none" xmlns="http://www.w3.org/2000/svg">
<path d="M12.9842 16.6909C14.4406 16.6909 15.4035 16.2974 16.257 15.3431C16.3242 15.2763 16.3828 15.2009 16.4499 15.1338C16.952 14.5731 17.1863 14.0206 17.1863 13.4934C17.1863 12.8906 16.8349 12.3299 16.0899 11.8106L13.6542 10.1199C12.9006 9.60095 12.0217 9.54238 11.3185 10.237L10.6742 10.8817C10.4813 11.0742 10.3142 11.0827 10.1217 10.9652C9.67812 10.6806 8.76562 9.88559 8.14598 9.2663C7.49312 8.62166 6.85705 7.90202 6.53062 7.37452C6.41348 7.18166 6.43026 7.02273 6.62276 6.83023L7.25883 6.18559C7.96205 5.48273 7.90348 4.59523 7.38455 3.85059L5.68526 1.41488C5.17455 0.669519 4.61383 0.326304 4.01098 0.31809C3.48383 0.309519 2.93133 0.552376 2.37062 1.05452C2.29526 1.12166 2.22812 1.18023 2.15276 1.2388C1.20705 2.09238 0.813477 3.05523 0.813477 4.50309C0.813477 6.89738 2.28669 9.81023 4.99062 12.5138C7.67741 15.2009 10.5988 16.6909 12.9842 16.6909ZM12.9928 15.4017C10.8581 15.4434 8.12133 13.8031 5.95312 11.6434C3.76848 9.46702 2.0524 6.63773 2.09419 4.50345C2.11098 3.58238 2.42919 2.78738 3.09062 2.21809C3.14062 2.16809 3.19062 2.12595 3.24919 2.08416C3.49205 1.8663 3.76848 1.74952 4.00276 1.74952C4.25383 1.74952 4.47133 1.8413 4.63062 2.09238L6.25455 4.52809C6.43026 4.78773 6.44705 5.08095 6.18741 5.34023L5.45098 6.07702C4.8649 6.65452 4.91526 7.35773 5.33383 7.91845C5.81062 8.56309 6.63955 9.50059 7.27562 10.1367C7.92026 10.7813 8.93276 11.6852 9.57741 12.1706C10.1381 12.5892 10.8499 12.6313 11.4274 12.0534L12.1638 11.317C12.4235 11.0574 12.7081 11.0742 12.9674 11.2417L15.4031 12.8656C15.6545 13.0327 15.7549 13.242 15.7549 13.4934C15.7549 13.7363 15.6378 14.0042 15.412 14.2549C15.3727 14.3099 15.3307 14.3631 15.2863 14.4142C14.7088 15.067 13.9135 15.3849 12.9928 15.4017Z" fill="white"/>
</svg>
