<svg width="34" height="34" viewBox="0 0 34 34" fill="none" xmlns="http://www.w3.org/2000/svg">
<path d="M17 8.5L15.4806 9.98006L21.4094 15.9375H8.5V18.0625H21.4094L15.4806 23.9838L17 25.5L25.5 17L17 8.5Z" fill="#229F90"/>
<path d="M17 31.875C14.058 31.875 11.1821 31.0026 8.7359 29.3681C6.28972 27.7336 4.38315 25.4105 3.2573 22.6924C2.13145 19.9744 1.83687 16.9835 2.41083 14.098C2.98478 11.2126 4.40149 8.5621 6.48179 6.48179C8.5621 4.40149 11.2126 2.98478 14.098 2.41083C16.9835 1.83687 19.9744 2.13145 22.6924 3.2573C25.4105 4.38315 27.7336 6.28972 29.3681 8.7359C31.0026 11.1821 31.875 14.058 31.875 17C31.8705 20.9437 30.3019 24.7246 27.5133 27.5133C24.7246 30.3019 20.9437 31.8705 17 31.875ZM17 4.25001C14.4783 4.25001 12.0132 4.99778 9.91649 6.39877C7.81976 7.79976 6.18556 9.79104 5.22054 12.1208C4.25553 14.4506 4.00303 17.0141 4.49499 19.4874C4.98696 21.9607 6.20128 24.2325 7.9844 26.0156C9.76751 27.7987 12.0393 29.0131 14.5126 29.505C16.9859 29.997 19.5495 29.7445 21.8792 28.7795C24.209 27.8145 26.2003 26.1803 27.6012 24.0835C29.0022 21.9868 29.75 19.5217 29.75 17C29.7461 13.6197 28.4015 10.379 26.0113 7.98874C23.621 5.59851 20.3803 4.25394 17 4.25001Z" fill="#229F90"/>
</svg>
