<svg width="20" height="20" viewBox="0 0 20 20" fill="none" xmlns="http://www.w3.org/2000/svg">
<path fill-rule="evenodd" clip-rule="evenodd" d="M12.5185 2.78605C12.9419 2.71355 13.416 2.68938 13.8627 2.76522C14.6583 2.89961 15.3955 3.26907 15.9794 3.82605C16.3594 3.83438 16.7335 3.75938 17.0644 3.65272C17.384 3.54818 17.6909 3.40814 17.9794 3.23522L17.9869 3.23022C18.1069 3.15026 18.2508 3.11426 18.3943 3.12832C18.5378 3.14237 18.6721 3.20562 18.7743 3.30734C18.8765 3.40906 18.9404 3.54299 18.9551 3.68643C18.9699 3.82987 18.9346 3.974 18.8552 4.09438C18.6827 4.35688 18.4419 4.82522 18.1727 5.35022L18.0435 5.60105C17.8894 5.90105 17.731 6.20438 17.5835 6.46438C17.491 6.62772 17.3919 6.79355 17.2919 6.93688V7.16522C17.3021 8.53075 17.0403 9.88465 16.5216 11.1479C16.003 12.4112 15.238 13.5585 14.2712 14.5229C13.3044 15.4873 12.1552 16.2494 10.8906 16.7649C9.62607 17.2804 8.27153 17.5389 6.90602 17.5252C4.92709 17.528 2.98967 16.9578 1.32769 15.8835C1.20838 15.8069 1.11869 15.6919 1.07334 15.5576C1.02799 15.4232 1.02969 15.2774 1.07816 15.1441C1.12662 15.0109 1.21897 14.898 1.34003 14.8242C1.4611 14.7503 1.60368 14.7198 1.74436 14.7377C1.99436 14.7683 2.24575 14.7835 2.49852 14.7835C3.39905 14.7803 4.28823 14.5824 5.10519 14.2036C4.59344 13.9707 4.13577 13.6339 3.76131 13.2146C3.38685 12.7952 3.1038 12.3025 2.93019 11.7677C2.89711 11.6654 2.891 11.5562 2.91246 11.4508C2.93392 11.3454 2.98222 11.2473 3.05269 11.166L3.06102 11.1577C2.6382 10.7809 2.2993 10.3194 2.0663 9.80312C1.8333 9.28688 1.71141 8.72743 1.70852 8.16105V8.11688C1.70846 7.97968 1.75355 7.84626 1.83684 7.73723C1.92012 7.62819 2.03697 7.54959 2.16936 7.51355C1.8873 6.95075 1.74089 6.32974 1.74186 5.70022C1.74138 4.98619 1.92815 4.28452 2.28352 3.66522C2.33401 3.5773 2.40513 3.50299 2.49074 3.44869C2.57635 3.39439 2.67389 3.36173 2.77494 3.35352C2.87599 3.34532 2.97752 3.36183 3.07076 3.40161C3.16401 3.44139 3.24618 3.50326 3.31019 3.58188C4.7684 5.37701 6.85645 6.54829 9.14852 6.85688C9.12862 6.10704 9.31778 5.36645 9.69485 4.718C10.0719 4.06954 10.622 3.53882 11.2835 3.18522C11.6185 3.00688 12.0619 2.86438 12.5185 2.78605ZM3.11852 9.07605C3.28035 9.53148 3.55764 9.9371 3.92326 10.2532C4.28889 10.5693 4.73032 10.7851 5.20436 10.8794C5.34093 10.9066 5.46451 10.9786 5.55547 11.0841C5.64644 11.1895 5.69958 11.3223 5.70648 11.4614C5.71337 11.6005 5.67361 11.7379 5.59352 11.8518C5.51342 11.9657 5.39757 12.0496 5.26436 12.0902C5.03714 12.1591 4.80547 12.2072 4.56936 12.2344C4.82548 12.5646 5.15226 12.8332 5.52573 13.0207C5.8992 13.2082 6.30989 13.3096 6.72769 13.3177C6.85657 13.3201 6.98155 13.3624 7.0855 13.4386C7.18945 13.5148 7.26729 13.6213 7.30835 13.7435C7.34941 13.8657 7.35169 13.9976 7.31488 14.1211C7.27806 14.2446 7.20395 14.3538 7.10269 14.4335C6.23329 15.1166 5.22364 15.5989 4.14602 15.846C5.03835 16.132 5.96985 16.2768 6.90686 16.2752H6.91436C8.11438 16.2878 9.30486 16.0611 10.4163 15.6084C11.5277 15.1557 12.5378 14.4861 13.3876 13.6387C14.2373 12.7912 14.9097 11.783 15.3654 10.6728C15.8212 9.56263 16.0511 8.37276 16.0419 7.17272V6.72688C16.0417 6.57512 16.0968 6.4285 16.1969 6.31438C16.2552 6.24855 16.3552 6.09688 16.4969 5.84772C16.6302 5.61272 16.7785 5.32938 16.9327 5.03022L16.9602 4.97522C16.5249 5.07306 16.0767 5.10036 15.6327 5.05605C15.4826 5.0397 15.3434 4.96954 15.241 4.85855C14.8219 4.40412 14.2639 4.10164 13.6544 3.99855C13.347 3.95476 13.0345 3.9618 12.7294 4.01938C12.4319 4.06562 12.1431 4.15636 11.8727 4.28855C11.3274 4.57989 10.8943 5.04398 10.6412 5.60804C10.3881 6.1721 10.3294 6.80421 10.4744 7.40522C10.4972 7.49972 10.4976 7.59825 10.4757 7.69296C10.4537 7.78766 10.41 7.87595 10.3479 7.95079C10.2859 8.02563 10.2072 8.08495 10.1182 8.12406C10.0292 8.16316 9.93229 8.18097 9.83519 8.17605C7.27503 8.04575 4.8547 6.9685 3.04436 5.15355C3.00914 5.33392 2.99156 5.51728 2.99186 5.70105V5.70272C2.99092 6.16167 3.10349 6.61374 3.31955 7.01866C3.5356 7.42358 3.84843 7.76879 4.23019 8.02355C4.3423 8.099 4.42693 8.20876 4.4714 8.33636C4.51587 8.46397 4.51779 8.60255 4.47686 8.73134C4.43594 8.86012 4.35437 8.97217 4.24439 9.0507C4.13442 9.12922 4.00195 9.16999 3.86686 9.16688C3.61543 9.15895 3.36525 9.12827 3.11936 9.07522" fill="white"/>
</svg>
